<?xml version="1.0" encoding="UTF-8" standalone="no"?>
<!-- Created with Inkscape (http://www.inkscape.org/) -->

<svg
   width="62.301998mm"
   height="62.287003mm"
   viewBox="0 0 62.301998 62.287003"
   version="1.1"
   id="svg5"
   xml:space="preserve"
   inkscape:export-filename="bitmap.svg"
   inkscape:export-xdpi="96"
   inkscape:export-ydpi="96"
   inkscape:version="1.2.1 (9c6d41e, 2022-07-14)"
   sodipodi:docname="logo.svg"
   xmlns:inkscape="http://www.inkscape.org/namespaces/inkscape"
   xmlns:sodipodi="http://sodipodi.sourceforge.net/DTD/sodipodi-0.dtd"
   xmlns="http://www.w3.org/2000/svg"
   xmlns:svg="http://www.w3.org/2000/svg"><sodipodi:namedview
     id="namedview7"
     pagecolor="#ffffff"
     bordercolor="#000000"
     borderopacity="0.25"
     inkscape:showpageshadow="2"
     inkscape:pageopacity="0.0"
     inkscape:pagecheckerboard="0"
     inkscape:deskcolor="#d1d1d1"
     inkscape:document-units="mm"
     showgrid="false"
     showguides="true"
     inkscape:zoom="0.36436077"
     inkscape:cx="-662.80461"
     inkscape:cy="640.84835"
     inkscape:window-width="1920"
     inkscape:window-height="1021"
     inkscape:window-x="0"
     inkscape:window-y="25"
     inkscape:window-maximized="0"
     inkscape:current-layer="layer1" /><defs
     id="defs2" /><g
     inkscape:label="Logo"
     inkscape:groupmode="layer"
     id="layer1"><g
       id="g2946"
       transform="translate(-54.274415,-42.788503)"><path
         id="path234"
         style="fill:#15d4ff;fill-opacity:1;stroke:none;stroke-width:9.37011;stroke-dasharray:none"
         d="m 59.320737,72.96167 a 26.142231,26.142231 0 0 0 -0.04031,0.97203 26.142231,26.142231 0 0 0 26.142074,26.14207 26.142231,26.142231 0 0 0 26.142589,-26.14207 26.142231,26.142231 0 0 0 -0.0207,-0.97203 z" /><path
         style="fill:#3246d1;fill-opacity:1;stroke:none;stroke-width:7.937;stroke-dasharray:none"
         d="m 59.292366,73.923893 18.939068,-0.02055 13.622004,12.17247 0.02786,-12.13111 19.694832,-0.02786 -0.002,-26.051088 -25.70385,6.01e-4 c 0,0 -11.699309,-0.433156 -18.977552,7.185336 -8.039459,8.415293 -7.601871,18.872195 -7.601871,18.872195 z"
         id="path1054"
         sodipodi:nodetypes="cccccccscc" /></g></g></svg>
